<mxfile host="app.diagrams.net" modified="2022-09-20T09:05:54.095Z" agent="5.0 (Windows NT 10.0; Win64; x64) AppleWebKit/537.36 (KHTML, like Gecko) Chrome/105.0.0.0 Safari/537.36" etag="7LU4ZexoswlReBCm0b2M" version="20.3.3" type="github">
  <diagram id="4IdoRDsxhWIr4OpQzmrk" name="DIAL Architecture">
    <mxGraphModel dx="2426" dy="1311" grid="1" gridSize="10" guides="1" tooltips="1" connect="1" arrows="1" fold="1" page="1" pageScale="1" pageWidth="1169" pageHeight="827" math="0" shadow="0">
      <root>
        <mxCell id="0" />
        <mxCell id="1" parent="0" />
        <UserObject label="Metadata Lake" lucidchartObjectId="SeWScPOr5BTh" id="s9J2YqvnW8XL8gBhkPe_-1">
          <mxCell style="html=1;overflow=block;blockSpacing=1;whiteSpace=wrap;fontSize=15;fontColor=#3a414a;spacing=9;verticalAlign=top;strokeColor=none;strokeOpacity=100;rounded=1;absoluteArcSize=1;arcSize=9;strokeWidth=0.8;fontFamily=Verdana;" parent="1" vertex="1">
            <mxGeometry x="585" y="188" width="331" height="146" as="geometry" />
          </mxCell>
        </UserObject>
        <UserObject label="Data Marketplace" lucidchartObjectId="EmUSTDtb_1Qb" id="s9J2YqvnW8XL8gBhkPe_-2">
          <mxCell style="html=1;overflow=block;blockSpacing=1;whiteSpace=wrap;fontSize=15;fontColor=#3a414a;spacing=3.8;strokeColor=none;strokeOpacity=100;fillOpacity=100;rounded=1;absoluteArcSize=1;arcSize=9;fillColor=#edf5ff;strokeWidth=0;fontFamily=Verdana;verticalAlign=middle;" parent="1" vertex="1">
            <mxGeometry x="377" y="10" width="1020" height="120" as="geometry" />
          </mxCell>
        </UserObject>
        <UserObject label="Data Providers" lucidchartObjectId="cnUSWieOmj4u" id="s9J2YqvnW8XL8gBhkPe_-3">
          <mxCell style="html=1;overflow=block;blockSpacing=1;whiteSpace=wrap;fontSize=15;fontColor=#3a414a;align=center;spacing=3.8;verticalAlign=top;strokeColor=none;strokeOpacity=100;fillOpacity=100;rounded=1;absoluteArcSize=1;arcSize=9;fillColor=#ffffff;strokeWidth=0;fontFamily=Verdana;" parent="1" vertex="1">
            <mxGeometry x="30" y="10" width="240" height="120" as="geometry" />
          </mxCell>
        </UserObject>
        <UserObject label="Data Providers" lucidchartObjectId="RpUSPOn~7vYs" id="s9J2YqvnW8XL8gBhkPe_-6">
          <mxCell style="html=1;overflow=block;blockSpacing=1;whiteSpace=wrap;fontSize=15;fontColor=#3a414a;align=center;spacing=3.8;verticalAlign=top;strokeColor=none;strokeOpacity=100;fillOpacity=100;rounded=1;absoluteArcSize=1;arcSize=9;fillColor=#ffffff;strokeWidth=0;fontFamily=Verdana;" parent="1" vertex="1">
            <mxGeometry x="1480" y="10" width="140" height="120" as="geometry" />
          </mxCell>
        </UserObject>
        <mxCell id="s9J2YqvnW8XL8gBhkPe_-10" value="Cosmos DB" style="aspect=fixed;html=1;points=[];align=center;image;fontSize=12;image=img/lib/azure2/databases/Azure_Cosmos_DB.svg;fontFamily=Verdana;verticalAlign=top;" parent="1" vertex="1">
          <mxGeometry x="826" y="244" width="64" height="64" as="geometry" />
        </mxCell>
        <mxCell id="s9J2YqvnW8XL8gBhkPe_-12" value="Data Storage" style="aspect=fixed;html=1;points=[];align=center;image;fontSize=12;image=img/lib/azure2/analytics/Data_Lake_Store_Gen1.svg;fontFamily=Verdana;verticalAlign=top;" parent="1" vertex="1">
          <mxGeometry x="725.5" y="250" width="64" height="52" as="geometry" />
        </mxCell>
        <mxCell id="s9J2YqvnW8XL8gBhkPe_-15" value="Containers" style="html=1;verticalLabelPosition=bottom;align=center;labelBackgroundColor=#ffffff;verticalAlign=top;strokeWidth=2;strokeColor=#0080F0;shadow=0;dashed=0;shape=mxgraph.ios7.icons.folder;fillColor=#66B2FF;fontFamily=Verdana;" parent="1" vertex="1">
          <mxGeometry x="616" y="252" width="75" height="50" as="geometry" />
        </mxCell>
        <mxCell id="s9J2YqvnW8XL8gBhkPe_-16" value="Data Owner" style="sketch=0;aspect=fixed;html=1;points=[];align=center;image;fontSize=12;image=img/lib/mscae/Person.svg;fontFamily=Verdana;fillColor=#66B2FF;" parent="1" vertex="1">
          <mxGeometry x="90" y="45" width="37" height="50" as="geometry" />
        </mxCell>
        <mxCell id="s9J2YqvnW8XL8gBhkPe_-17" value="Application&lt;br&gt;Owner" style="sketch=0;aspect=fixed;html=1;points=[];align=center;image;fontSize=12;image=img/lib/mscae/Person.svg;fontFamily=Verdana;fillColor=#66B2FF;" parent="1" vertex="1">
          <mxGeometry x="180" y="45" width="37" height="50" as="geometry" />
        </mxCell>
        <mxCell id="s9J2YqvnW8XL8gBhkPe_-18" value="Data user" style="sketch=0;aspect=fixed;html=1;points=[];align=center;image;fontSize=12;image=img/lib/mscae/Person.svg;fontFamily=Verdana;fillColor=#66B2FF;" parent="1" vertex="1">
          <mxGeometry x="1531.5" y="40" width="37" height="50" as="geometry" />
        </mxCell>
        <UserObject label="DAL Sourcing Application" lucidchartObjectId="SeWScPOr5BTh" id="s9J2YqvnW8XL8gBhkPe_-19">
          <mxCell style="html=1;overflow=block;blockSpacing=1;whiteSpace=wrap;fontSize=15;fontColor=#3a414a;spacing=9;verticalAlign=top;strokeColor=none;strokeOpacity=100;rounded=1;absoluteArcSize=1;arcSize=9;strokeWidth=0.8;fontFamily=Verdana;" parent="1" vertex="1">
            <mxGeometry x="300" y="188" width="140" height="146" as="geometry" />
          </mxCell>
        </UserObject>
        <mxCell id="s9J2YqvnW8XL8gBhkPe_-20" value="" style="aspect=fixed;html=1;points=[];align=center;image;fontSize=12;image=img/lib/azure2/databases/SQL_Database.svg;strokeColor=#4A4A4A;fontFamily=Verdana;fillColor=#66B2FF;" parent="1" vertex="1">
          <mxGeometry x="346" y="248" width="48" height="64" as="geometry" />
        </mxCell>
        <UserObject label="DAL Consuming Application" lucidchartObjectId="SeWScPOr5BTh" id="s9J2YqvnW8XL8gBhkPe_-21">
          <mxCell style="html=1;overflow=block;blockSpacing=1;whiteSpace=wrap;fontSize=15;fontColor=#3a414a;spacing=9;verticalAlign=top;strokeColor=none;strokeOpacity=100;rounded=1;absoluteArcSize=1;arcSize=9;strokeWidth=0.8;fontFamily=Verdana;" parent="1" vertex="1">
            <mxGeometry x="1090" y="188" width="140" height="146" as="geometry" />
          </mxCell>
        </UserObject>
        <mxCell id="s9J2YqvnW8XL8gBhkPe_-22" value="" style="aspect=fixed;html=1;points=[];align=center;image;fontSize=12;image=img/lib/azure2/databases/SQL_Database.svg;strokeColor=#4A4A4A;fontFamily=Verdana;fillColor=#66B2FF;" parent="1" vertex="1">
          <mxGeometry x="1136" y="248" width="48" height="64" as="geometry" />
        </mxCell>
        <UserObject label="Data Sharing&lt;br&gt;Agreement App" lucidchartObjectId="SeWScPOr5BTh" id="s9J2YqvnW8XL8gBhkPe_-23">
          <mxCell style="html=1;overflow=block;blockSpacing=1;whiteSpace=wrap;fontSize=15;fontColor=#3a414a;spacing=9;verticalAlign=top;strokeColor=none;strokeOpacity=100;rounded=1;absoluteArcSize=1;arcSize=9;strokeWidth=0.8;fontFamily=Verdana;" parent="1" vertex="1">
            <mxGeometry x="1300" y="188" width="140" height="146" as="geometry" />
          </mxCell>
        </UserObject>
        <mxCell id="s9J2YqvnW8XL8gBhkPe_-24" value="" style="aspect=fixed;html=1;points=[];align=center;image;fontSize=12;image=img/lib/azure2/databases/SQL_Database.svg;strokeColor=#4A4A4A;fontFamily=Verdana;fillColor=#66B2FF;" parent="1" vertex="1">
          <mxGeometry x="1346" y="248" width="48" height="64" as="geometry" />
        </mxCell>
        <mxCell id="s9J2YqvnW8XL8gBhkPe_-87" style="edgeStyle=orthogonalEdgeStyle;rounded=0;orthogonalLoop=1;jettySize=auto;html=1;exitX=1;exitY=0.5;exitDx=0;exitDy=0;strokeColor=#66B2FF;fontFamily=Verdana;fontSize=10;" parent="1" source="s9J2YqvnW8XL8gBhkPe_-26" edge="1">
          <mxGeometry relative="1" as="geometry">
            <mxPoint x="660" y="340" as="targetPoint" />
          </mxGeometry>
        </mxCell>
        <UserObject label="Metadata Applications" lucidchartObjectId="EmUSTDtb_1Qb" id="s9J2YqvnW8XL8gBhkPe_-26">
          <mxCell style="html=1;overflow=block;blockSpacing=1;whiteSpace=wrap;fontSize=15;fontColor=#3a414a;spacing=3.8;strokeColor=none;strokeOpacity=100;fillOpacity=100;rounded=1;absoluteArcSize=1;arcSize=9;fillColor=#edf5ff;strokeWidth=0;fontFamily=Verdana;verticalAlign=top;" parent="1" vertex="1">
            <mxGeometry x="30" y="450" width="220" height="120" as="geometry" />
          </mxCell>
        </UserObject>
        <mxCell id="s9J2YqvnW8XL8gBhkPe_-29" value="" style="shape=image;verticalLabelPosition=bottom;labelBackgroundColor=default;verticalAlign=top;aspect=fixed;imageAspect=0;image=data:image/jpeg,/9j/4AAQSkZJRgABAQAAAQABAAD/2wCEAAkGBxAQEBAQEBAWFhAWFhUWFRUXFhYXEBgYFRUXFhUVFRgYHSggGCYlGxcXITEiJSorLi4uFx8zODMsNygtLisBCgoKDg0OGxAQGy0lHyYtLS0tLS0tLTIvMS0tLS0tKy0vLS0tLSstLS0tLS0tLS0tLS0tLS0tLS0tLS4tLS0tLf/AABEIALABHgMBIgACEQEDEQH/xAAcAAABBQEBAQAAAAAAAAAAAAAAAQIFBgcEAwj/xABBEAABAwEFBAcFBQYGAwAAAAABAAIDEQQFBiExEkFRcSIyYYGRocETQlKx0QcjM3KCFGKSouHwJENzssLSFlPx/8QAGgEAAgMBAQAAAAAAAAAAAAAAAAUBAwQGAv/EADYRAAEDAQMKBgECBwEAAAAAAAEAAgMEESExBRJBUWFxgaGx0SIykcHh8BNC8RQVIyQzQ1LS/9oADAMBAAIRAxEAPwDcUIQhCEIQhCEIQhCEIQhCEIQhCEKvXxiyyWarS/akHuMzNf3jo3xqqVe2N7VLURkQs4DN55uPpRa4aGaW8Cwaysk1bFFcTadQv+FpVtvGGAVmlazhtOAJ5DUqu27HtmZURsfIeNNhni7PyWZvkLiXOJLjqSSXHmSiqZR5Ljb5yTyHfmlz8pyHyADn8clbrVj61O/DYxg5FzvEmnkoqbEltf1rS79JDR/KAodOWxtNCzytHp3WV1RK7Fx9e1i6pLfM7rTPPNzj6rwLydSUwFKrQ0DAKsuJxK9GyOGjiORIXXFfFpZ1bRIP1O+q4kNBJoBU8BqoLAdHJeg4twNinbNjC3M/zQ4fvNB8xQqZsX2gOyE0APEtcR4NdX5qCsWF7bLQiAtHFxDB4HPyUzZfs/lP4s7W9jQXHxNFgmFF+qy3ZjyW2I1f6bePyrJYMWWOagEuy7hINnz6vmpxrgRUGo4hVOLAVmHWklcebQP9vqpW7cPQ2c1idKOz2hLDzbp5JXM2n/1uPEe6ZROqMJGjgfZTKEIWVaUIQhCEIQhCEIQhCEIQhCEIQhCEIQhCEIQhCEIQhCEIXjPOyNrnvcGsAqXE0aB2krPsR4+c6sVjyGhmI6R/I06cz4K+CnkmNjBx0BUT1McIteeGkq3X5iKz2Nv3jqvpURtoXntpuHaVnF+YwtNqq0O9lF8DSakfvHV3kOxV6SQuJc4kuJqSTUk8STqkBT2moI4rzedZ9vtu1I6iukluFw1D3P0bE4JwTEq2lYl6VQmAp6F6SgpyYlChTanrqu+wSzu2IYy92+mg7XHQd6s2HcEPkpJaqsZqIxk8/m+EdmvJX+xWSOFgjiYGsG4Cnf280tqMosj8LPEeXzw9Uwp6B7/E+4c/jj6KmXVgHR1pk/Q31cfQd6t133XBZxSGJre0DpHm45ldyEolqZJfOeGj07pvFTxxeQcdPr2QhcdrvGCL8SVrTwr0vAZqItOL7O3qNe/kNkfzZ+S8Mhkf5WlenSsb5irGhUybGrvcgA5uJ+QC5JMZ2k6NjH6XV83LQKCY6B6hVGsiGnkr8hZ0cXWv4mfwBJ/5da/iZ/AF7/l0uz7wXn+Ni2+i0ZCz5mNbSNWRn9Lq+Tl0RY6f78DTycR8wV5NBMNA9QpFZFr5FXlCg7lxHBauiDsSfA7U/lO/5qcWR7HMNjhYVoY9rxa02oQhC8r0hCEIQhCEIQhCEIQhCEIQhRd+X3BY49uV2Z6rB13Hg0eugUoqN9qN37cEdoAzidsu/LJQZ8nBvir6aNskrWPwJVFTI6OJz24gKlYhxJPbX1kOzED0YwegO0/Ee091FDgptUtV1TGNY0NaLAuWc9zznONpTwUqYnAr0oTkoKYlUIT0tUwFesETpHNYxpc9xAaBqSdyhek+CJ8j2sY0ue40a0akrT8KYUZZQJJaPtH8jOxvE9vgvfCmGWWNm2+jrQ4dJ25o+FnZxO9WRIa2vMlrIz4dev4T2joczxyebVq+eiEIQliZLgvO3PhbVkL5DwbSg57/AABVHvK/7VKS1ziwb2Nq3xOq0dctrsMUwpLG13MZjkdQtVPPHH5mW7f3u6LPNE9/ldZs+ResqJSEq33ng/V1nf8Aof6O+viqna7LJE7YkYWu4EeY49ycxTsl8p7pXJE+PzDsvMlISmkpCVcqkEpCU0lISpXm1KSkJSEppKlQlDiCCDQjQjXuVyw7jGlIrUexsv8A3+vjxVKJTSVVLAyVtjgrI5nRutatua8EAg1B0O5OWXYbxPJZSGPq+D4feb2s+i0mx2pkrGyRuDmOzBH95ckhqKZ8Bvw1/cDsTmCobKLsdS6EIQs6vQhCEIQhCEIQoq9r0EXRbnJ5Dn9El8Xl7IbDfxD5Diqu5xJJJqd53rZTU+d4nYdUlyllH8dsUR8Wk6vnpvwvMTw4NcNCBReF5WNs8MsLuq9pbyqMiORz7ly4etG1Fs72nPvzH07lLLM9pY8jSPoTSGRs0QfoI/cdV89WqB0T3xvFHscWuHaDQrzqrr9qF0ezmbamjoS9F/Y5o9Wj+UqkrrIJhLGHjT1081y88RhkLDo6aE+qVMTgVYqk4FKmJaoXpPqtUwRhr9mYJpm/4h40PuA7uZ3+HGta+zu4fbS/tMgrFEeiDo5+o7m686LVElynVf6W8e3dOcm0v+53Dv2QhC8Z5mMFXuAHak2KbkgC04L2QoG0YgaMo217TkPBF23u+WVrHNAaa6A1yFVeaeQNziFhGUqcvEbTaSQLhdftU8hCFQt6Fy26xRzsLJWBzfMdoO5dSFIJBtCggEWFZxiDDMlnrJHV8PH32/mA1HaFXSVtKo2KsMU2p7M3LMvjG7i5g9PBNqWuzvBJjoPfullTSZozmYau3ZU4lISkqmkppYl6UlNJSEpCUKEpKaSmkppKlRalJUth3EEljfUdKI9dnHtbwKiCU0leXsa9ua4XIa8tNrbittu63xzxtlidtMPiDvBG49i61jWHr9ksctW5xmm2yuThxHAjcVrV326O0RtlidVjtOI4g8CEgqqUwG3FpwPsdvVPKapEws/UMR7jZ0XWhCFkWpCjb2vEQtoM3nQfVdFutbYWF7u4cexU6eZ0ji9xq4/3RaqaDPOc7DqlWUq/8DcxnmPIa950eqa95JJJqTmTvTEITRcupG4bV7OYAnJ2R+vires+Vxui2e2iBPWGTufFL6yO8PG4+yf5GqLjCd49x7+q88Q3W212eSA5Fwq08HDNp8fIlYZNE5jnMeKOaS1wOoINCPFfQ6zT7TsP0cLZE3I0bMBuOjXd+h7uKvyXU5j/AMTsDhv+VpypT57fytxGO74WfpyZVKCn6QL0C9IInPc1jRVziGtHEuNAPErwVr+zewe1trXnqxNLu89Fvzr3KuWT8cZfqH3mrIYzJIGDSfvJahct3Ns0EUDdGNoTxcc3O7zUrvQhcgSSSTiuva0AABcV421sLNp2Z0A3kqo2u2PldtPNTuG4diffFt9tK416IybyG/xzXDtJrTQhjbTiuUyjWmd5aD4Abttmk+2zavXaXRYLR7OWN50GvI/0K4tpG0tBAIsKwNcWuDhiL+IWjIUBh+9A4CJ56YyaT7w4cwp9JJGFjs0rtYJ2TsD2fsdX3ehCELwrkIQhCFnuNcP+yJtMLfuyfvGjRpPvDsPkeap5K22WNr2ua4VaQQQdCDkQskxLdJsk7o/cPSjPFp3cxp/9Tqgqc8fjdiMNo+Om5KK2nzDntwOOw/PXeoslISkJSEpkl6UlNJTSUhKFCUlNJQSmEqVCcSprCuInWKWpqYHH7xv/ADb2jzHcoMlNJXl8bXtLXYFDHuYQ5uK3uzWhkjGyRuDmOALXDQg6FeyyzAOJPYvFmld9y89An3HE/Jx8DnxWprm6indA/NOGg7PuPa9dFTziZmcMdI+/eKp98Wz2shp1G9X18fouBd182MwyGnUd1fXwXAmcWbmDNws+81yFTn/mf+TzW3/d3KxCRCRWKhC7bnt3sZAT1D1uW7w+q4UihzQ4WFe45HRvD24haEDXRedogbIx0b2hzHAhwOhByIUHhy8shC85+6fRWJJZIzG7NK7OmqG1EYe3iNR1LDsW4ffYp9g1MTqmJ/EfCe0b+471Creb8uiK2QuhlGRza73muGjmrE77uiWxzOhlGYza73XN3Ob/AHkuioawTtzXeYc9vdIa6jMLs5vlPLZ2XECtJ+ySEbFqk3lzG+AJ/wCSzSq1D7JX/c2gb9tp8W/0U5SP9u7h1UZNFtQOPRX1cd5y7EMjhqGmnM5Bdij79H+Hl5V8CCubYLXAbQuhmJETiNR6Ki1RtLz2kbSfLhgvTaRtLz2kbSFK9NpTFjxHKwAPG2O00Pjv71B7SNpeHxteLHC1WwzyQuzozYfvA8VcG4nh3tcOVCum7L5ZO5zWtOW804gad6o20pzB4rM88G/MhZJqWNrC4atabUuUqiWZrHEWE33bFckIQlq6JCr2M7q/abM7ZH3sdXs4mg6Te8eYCl7Fa2TMEjDkfEEagrqXtjnRvDhiFWQ2VmsELB6phKl8WXd+zWuWMCjCdpnDZfnQcjUdyhiV1DHBzQ4aVzj2lri04hBKCUhKaSvS8EoJSEpCU0lSoKUlNJSEppKFCUla7gC+jarNsvNZYiGOPvOFKscfMc2lY+Stf+z25DZbNtyNpNLRzhva0dVvmT+pL8phv4b8bbvfl7Ldk3O/NdhZf7c/dWC3WRszCw8weB4qmzxOY4scKOGqvqjL3u0TNq3KQaHj2FK6afMOa7A8lpylQ/nbns8w5jVv1em6oJErmkEgihGRG8FNTRcuhCE1ShKHEEEZEaHerdcl5iZuy4/eAZ9o4hU9Ojkc1wc00cMwRqqZoRILNOhbKOrdTPzheDiPukYrRVF3/csNsiMUw7WuHXaeIPpvSXPerZxsnKQajd3fRSqU+ON2ohdYx8c8dovaftiwjEGHp7FJsyNqw9R46jh6HsKsX2UW0MtE0JP4jQR+ZhJp4OPgtMttkjmYY5WNew6tcKj+nNUW1YIks07LVYHbWy4O9k80dTe1rzkQRUZ011KbNrm1ERilucRjot0br7Nm5KjQup5RLFe0HDTt33cVoa8Z4Q9jmHRwIPeKJYJNpodQioBoRRwruK9UmTm4rLpmFjnMd1mkg8xkmbSs2Lrqz/aGDh7QDsyDvRVTaT2KUSMDhx3riqmnMEhYeG0aD7L12kbS8tpG0rFQvXaRtLy2kbSEL12lbsG2Yhj5T75AHJup8SqvdtifaJBGzmTubxJWj2aBsbGsYKNaKBYa2UBuZpPROcj0xdJ+U4DDf8C311r3XPbJtiN7z7rSfJdCrmMbZsRNiB6Uhz5NzPnTzS+Nme8NT2pm/FE5+oc9HNRmDrfsSmEnov07CB6j5BXZZVDKWOa9urSCOYNQtQgmD2teNHAEd4qtVayx+drS7I01sRiP6cNx7FUj7ULDVkNoHuksdydm3wLT/Es8JWyYvsvtbFaG0qQwvHNnS9FjBKZZNkzobNR5YqrKLM2W3WPjslJTCUhKaSt6wJxKaSkJTSVKhOJTCUhKn8IYbfbpc6tgYem7/i3tPkM+FfL3tY0ucbgvTGOe4NaLypX7PsM+3kFqmb9yw9AHR7gfk0+Jy4rWF42azsjY2ONoaxoAa0aADQL2XM1FQ6Z+ccNA1fdK6SmgELM0Y6TrKEIQqFeoe+7r9qNtv4g3fEOCqbgQaEUO8b1oihr5ugSgvZlL5O5/VbKaozfC7Dp8JLlHJ35P6sXm0jX89d+NSSJz2lpIIoRkQdQmpmudSIQkQhK1xaQWmhGYI1CtFz38H0jlID9AdzufBVVCqlhbILCtNNVSU7rWcRoP3X7XLSkKk3ZfskVGu6cfA6jkfQ+StVivCOYVjdXiNCOYSuWB8eOGtdPS10VQPCbDqOPzwXYhCFStiaRXkqlfWFjUyWbmYzl/CfqrehWRSujNrVRUU0dQ3NeNx0jcsmnhfG7Ze0tdwoQfNedVq80LXCjmhw4EAjzXI65LKf8AIZ8vktza8WeJqSvyI+3wPFm0drVme0pe68PWiehpsR/ERTwGp+SvUF3wszZEwHiAK+K7F5kryRYwWb+ythyK0G2V1uwXc8eh2rhuu7o7OzYjHMnrOPEruQua2WpkLC+RwDR4nsA3rASXHWSnLWtjbYLgPQBOtNobGxz3mjQKkrOb1t7p5XSO35NHADd/e9dV+Xy60uoKtjGg38z2/JRKaU0GYM52PRc3lGu/OcxnlHM692r1QtAwtNt2SInUbQP8Rp5UWfK8YJfWB44PPmAVFYP6du1Tkh1lRZrB9ip6aIPa5p0cCD3ii+fnt2SWnUEjwyX0KsGv+PYtVpbwkf8A7iV6yUb3jcfS3umOVG3NdvHTsuElISmkppKcpOlJSEppKncK4alt8lB0YWnpvpl+VvE/Lf2+Xvaxpc42AIYxz3BrRaU3C2HpbfLstq2JtNt+5o4DiTw71s922COzxMhhbssaKAb+0k7yeKS7bvis0TYYWBrG7t5O8k7yeK7VztVVOndqaMB7nb0XRUtKIG63HE+w2dUIQhZFrQhCEIQhCEIUXe91NnFR0ZBo7cewqn2mB0bix7aOG71HFaIuK32Bk7dl45EajktUFSY7jh0Suuyc2fxsudyO/bt9dlDSLuvK7JID0hVm540PPtXAmjXBwtC5p7HRuLXiw6kJEJFK8JUjHlpBaSCNCDQjvSJEKVOWLE0rKCQCRvHR3jvU5ZL/ALPJq/ZPB2XnoqMkWd9LG7RZuTCHKdRHcTnDb3x9SVpsTw4VaQRxBqF6LL43uaatcQeIJB8l2x3zaW6THvp9CszqF2g/eaYMy2z9bDwIPWxaGhUEYjtQ/wAwHm1v0TXYjtZ/zacms9QvH8FJrH3grf5zB/y70H/paAuW02yOIVkeG8zn3DUqgz3taH5Omd3ZD0XASrG0P/R9FTJlofoZ6n2HcK4W/FkYygbtHich3DU+Sq1ttkkztuRxcd3AdgG5c6Ra44WR+UcdKVVFXLP5zdqGH3fahIhIrVmQrngb8OX8w+Spiu+B2UgeeLz5ALNVn+keCY5KH9yNx6KyLC8X5W+1/wCo5bosJxg7/H2v/UcvOSv8jt3um2Vf8bd/sVEkphKVrS4hrQSSaAAVJJ3ADVaLhHAHVntozyLYfkZP+vjwTaadkLbXnuUpggfM6xnroChMH4NkthEstWWXjo9/Yzs/e8OzW7FZI4Y2xRsDWNFA0af15r2a0AAAUAyAGieudqap85tdcNA+4nauhp6ZkAsF50n7gNiEIQs60IQhCEIQhCEIQhCEIQhCELzlYHAtcAQdQdFWb1w6c3wZjezf3HfyVqQrI5XRm1qz1FLHO2x446RxWZuBBIIoRqDqmq/XjdcU46Yz3OGR/r3qq3jcU0NSBts+IDPw3JnFUsfcbiucqcmywXjxN1j3H0bVFJEVSLQl6EiEIQkSISIQhIUJEKUJEJEIQkQhCEiEJEIQtBwhFSyRn4i938xA8gFny1KwQ+zijZ8LQO+max1rrGAben7pvkZlsrnahZ6n4K6li1ouK02632r2LMvbPDpDlG3pHU+gzW0rziia0UaABUmgFBUmpPistPUmDOLReU6qKYT2BxuBtVfwzhGz2IBwG3NTORwzHEMHujz7VZEIVL3ue7OcbSr2Maxua0WBCEIXhekIQhCEIQhCEIQhCEIQhCEIQhCEIQhCEIQhCFFXhckM1TTZf8Qy8RoVW7dhudmbR7RvEdbvB9Kq8oV8dRIzA3bftqwz5PgmvIsOsXfB4hZc9pBoQQd4ORTVpNpsccopIwO5jPuOoURa8Kwu/DcY+zrN88/NbG1rD5hZzSmXI8zfIQeR53c1TEin58KTN6jmuHOjvAinmo+W5bSzWE92Y8qrQ2aN2DgsL6SdnmYfS3mLQo5Ivd9kkbqxw5inovAg8FYCCqC0jEJEie2Nx0aTyBXQy653dWJ5/SfUKC4DEqWsc7ygngVyJFMwYZtT9Yw3m4D5ZqTsuDP/AGzdzR6/0VTqiJuLvRaY6Cofgw8buthVSXXYrummP3UZd26N8Sr1Y8P2WPMR1PF2fkcvJSrWgCgFB5LO+uH6B69kwiyM4/5HcB3PZVW68J7Ja+d9SCDsDq5Z5nf3K2IQsUkrpDa4pxBTRwNzYxZ9+7EIQhVq9CEIQhCEIQhCEIQhCEIQhf/Z;" parent="1" vertex="1">
          <mxGeometry x="152" y="500" width="65" height="40" as="geometry" />
        </mxCell>
        <mxCell id="s9J2YqvnW8XL8gBhkPe_-30" value="" style="aspect=fixed;html=1;points=[];align=center;image;fontSize=12;image=img/lib/azure2/databases/SSIS_Lift_And_Shift_IR.svg;strokeColor=#4A4A4A;fontFamily=Verdana;fillColor=#66B2FF;" parent="1" vertex="1">
          <mxGeometry x="77.76" y="486" width="49.24" height="54" as="geometry" />
        </mxCell>
        <UserObject label="Pre-Processing" lucidchartObjectId="EmUSTDtb_1Qb" id="s9J2YqvnW8XL8gBhkPe_-31">
          <mxCell style="html=1;overflow=block;blockSpacing=1;whiteSpace=wrap;fontSize=15;fontColor=#3a414a;spacing=3.8;strokeColor=none;strokeOpacity=100;fillOpacity=100;rounded=1;absoluteArcSize=1;arcSize=9;fillColor=#edf5ff;strokeWidth=0;fontFamily=Verdana;verticalAlign=top;" parent="1" vertex="1">
            <mxGeometry x="210" y="590" width="120" height="90" as="geometry" />
          </mxCell>
        </UserObject>
        <UserObject label="Data Sources" lucidchartObjectId="EmUSTDtb_1Qb" id="s9J2YqvnW8XL8gBhkPe_-32">
          <mxCell style="html=1;overflow=block;blockSpacing=1;whiteSpace=wrap;fontSize=15;fontColor=#3a414a;spacing=3.8;strokeColor=none;strokeOpacity=100;fillOpacity=100;rounded=1;absoluteArcSize=1;arcSize=9;fillColor=#edf5ff;strokeWidth=0;fontFamily=Verdana;verticalAlign=top;" parent="1" vertex="1">
            <mxGeometry x="30" y="590" width="140" height="200" as="geometry" />
          </mxCell>
        </UserObject>
        <UserObject label="" lucidchartObjectId="SeWScPOr5BTh" id="s9J2YqvnW8XL8gBhkPe_-34">
          <mxCell style="html=1;overflow=block;blockSpacing=1;whiteSpace=wrap;fontSize=15;fontColor=#3a414a;spacing=9;verticalAlign=top;strokeColor=none;strokeOpacity=100;rounded=1;absoluteArcSize=1;arcSize=9;strokeWidth=0.8;fontFamily=Verdana;" parent="1" vertex="1">
            <mxGeometry x="208" y="700" width="124" height="100" as="geometry" />
          </mxCell>
        </UserObject>
        <mxCell id="s9J2YqvnW8XL8gBhkPe_-33" value="" style="aspect=fixed;html=1;points=[];align=center;image;fontSize=12;image=img/lib/azure2/general/Folder_Blank.svg;strokeColor=#4A4A4A;fontFamily=Verdana;fillColor=#66B2FF;" parent="1" vertex="1">
          <mxGeometry x="231" y="730" width="69" height="56.00000000000001" as="geometry" />
        </mxCell>
        <mxCell id="s9J2YqvnW8XL8gBhkPe_-35" value="" style="shape=image;html=1;verticalAlign=top;verticalLabelPosition=bottom;labelBackgroundColor=#ffffff;imageAspect=0;aspect=fixed;image=https://cdn0.iconfinder.com/data/icons/gcons-2/21/wrench1-128.png;strokeColor=#4A4A4A;fontFamily=Verdana;fontSize=15;fillColor=#1329ED;" parent="1" vertex="1">
          <mxGeometry x="243.5" y="620" width="44" height="44" as="geometry" />
        </mxCell>
        <UserObject label="Validation &amp;amp; ingestion framework" lucidchartObjectId="EmUSTDtb_1Qb" id="s9J2YqvnW8XL8gBhkPe_-36">
          <mxCell style="html=1;overflow=block;blockSpacing=1;whiteSpace=wrap;fontSize=15;fontColor=#3a414a;spacing=3.8;strokeColor=none;strokeOpacity=100;fillOpacity=100;rounded=1;absoluteArcSize=1;arcSize=9;fillColor=#edf5ff;strokeWidth=0;fontFamily=Verdana;verticalAlign=top;fontStyle=1" parent="1" vertex="1">
            <mxGeometry x="370" y="590" width="140" height="200" as="geometry" />
          </mxCell>
        </UserObject>
        <mxCell id="s9J2YqvnW8XL8gBhkPe_-40" value="" style="aspect=fixed;html=1;points=[];align=center;image;fontSize=12;image=img/lib/azure2/databases/Data_Factory.svg;strokeColor=#4A4A4A;fontFamily=Verdana;fillColor=#1329ED;" parent="1" vertex="1">
          <mxGeometry x="406" y="680" width="68" height="68" as="geometry" />
        </mxCell>
        <UserObject label="Read Data Stores" lucidchartObjectId="EmUSTDtb_1Qb" id="s9J2YqvnW8XL8gBhkPe_-41">
          <mxCell style="html=1;overflow=block;blockSpacing=1;whiteSpace=wrap;fontSize=15;fontColor=#3a414a;spacing=3.8;strokeColor=none;strokeOpacity=100;fillOpacity=100;rounded=1;absoluteArcSize=1;arcSize=9;fillColor=#edf5ff;strokeWidth=0;fontFamily=Verdana;verticalAlign=top;fontStyle=1" parent="1" vertex="1">
            <mxGeometry x="564.5" y="590" width="305.5" height="200" as="geometry" />
          </mxCell>
        </UserObject>
        <mxCell id="s9J2YqvnW8XL8gBhkPe_-42" value="" style="aspect=fixed;html=1;points=[];align=center;image;fontSize=12;image=img/lib/azure2/storage/Data_Lake_Storage_Gen1.svg;strokeColor=#4A4A4A;fontFamily=Verdana;fillColor=#1329ED;" parent="1" vertex="1">
          <mxGeometry x="603" y="680" width="64" height="52" as="geometry" />
        </mxCell>
        <UserObject label="Syntatctic Transformation Engine" lucidchartObjectId="RpUSPOn~7vYs" id="s9J2YqvnW8XL8gBhkPe_-43">
          <mxCell style="html=1;overflow=block;blockSpacing=1;whiteSpace=wrap;fontSize=15;fontColor=#3a414a;align=center;spacing=3.8;verticalAlign=top;strokeColor=none;strokeOpacity=100;fillOpacity=100;rounded=1;absoluteArcSize=1;arcSize=9;fillColor=#ffffff;strokeWidth=0;fontFamily=Verdana;" parent="1" vertex="1">
            <mxGeometry x="890" y="590" width="140" height="200" as="geometry" />
          </mxCell>
        </UserObject>
        <UserObject label="Data Access Stores" lucidchartObjectId="EmUSTDtb_1Qb" id="s9J2YqvnW8XL8gBhkPe_-44">
          <mxCell style="html=1;overflow=block;blockSpacing=1;whiteSpace=wrap;fontSize=15;fontColor=#3a414a;spacing=3.8;strokeColor=none;strokeOpacity=100;fillOpacity=100;rounded=1;absoluteArcSize=1;arcSize=9;fillColor=#edf5ff;strokeWidth=0;fontFamily=Verdana;verticalAlign=top;fontStyle=1" parent="1" vertex="1">
            <mxGeometry x="1040" y="590" width="440" height="200" as="geometry" />
          </mxCell>
        </UserObject>
        <mxCell id="s9J2YqvnW8XL8gBhkPe_-45" value="" style="aspect=fixed;html=1;points=[];align=center;image;fontSize=12;image=img/lib/azure2/databases/Azure_Cosmos_DB.svg;fontFamily=Verdana;verticalAlign=top;" parent="1" vertex="1">
          <mxGeometry x="1360" y="658" width="64" height="64" as="geometry" />
        </mxCell>
        <mxCell id="s9J2YqvnW8XL8gBhkPe_-46" value="" style="aspect=fixed;html=1;points=[];align=center;image;fontSize=12;image=img/lib/azure2/general/Folder_Blank.svg;strokeColor=#4A4A4A;fontFamily=Verdana;fillColor=#66B2FF;" parent="1" vertex="1">
          <mxGeometry x="1071" y="664" width="69" height="56.00000000000001" as="geometry" />
        </mxCell>
        <mxCell id="s9J2YqvnW8XL8gBhkPe_-47" value="" style="aspect=fixed;html=1;points=[];align=center;image;fontSize=12;image=img/lib/azure2/databases/SQL_Database.svg;strokeColor=#4A4A4A;fontFamily=Verdana;fillColor=#66B2FF;" parent="1" vertex="1">
          <mxGeometry x="1169" y="656" width="48" height="64" as="geometry" />
        </mxCell>
        <mxCell id="s9J2YqvnW8XL8gBhkPe_-38" value="" style="aspect=fixed;html=1;points=[];align=center;image;fontSize=12;image=img/lib/azure2/analytics/Azure_Synapse_Analytics.svg;strokeColor=#4A4A4A;fontFamily=Verdana;fillColor=#1329ED;" parent="1" vertex="1">
          <mxGeometry x="1260" y="658" width="60" height="69" as="geometry" />
        </mxCell>
        <UserObject label="Consuming Applications" lucidchartObjectId="RpUSPOn~7vYs" id="s9J2YqvnW8XL8gBhkPe_-51">
          <mxCell style="html=1;overflow=block;blockSpacing=1;whiteSpace=wrap;fontSize=15;fontColor=#3a414a;align=center;spacing=3.8;verticalAlign=top;strokeColor=none;strokeOpacity=100;fillOpacity=100;rounded=1;absoluteArcSize=1;arcSize=9;fillColor=#ffffff;strokeWidth=0;fontFamily=Verdana;" parent="1" vertex="1">
            <mxGeometry x="1510" y="330" width="140" height="462" as="geometry" />
          </mxCell>
        </UserObject>
        <mxCell id="s9J2YqvnW8XL8gBhkPe_-52" value="Domain Data Stores" style="aspect=fixed;html=1;points=[];align=center;image;fontSize=12;image=img/lib/azure2/databases/SQL_Database.svg;strokeColor=#4A4A4A;fontFamily=Verdana;fillColor=#66B2FF;" parent="1" vertex="1">
          <mxGeometry x="1556" y="660.5" width="48" height="64" as="geometry" />
        </mxCell>
        <mxCell id="s9J2YqvnW8XL8gBhkPe_-53" value="Power BI" style="shape=image;verticalLabelPosition=bottom;labelBackgroundColor=default;verticalAlign=top;aspect=fixed;imageAspect=0;image=data:image/jpeg,/9j/4AAQSkZJRgABAQAAAQABAAD/2wCEAAkGBwgICAgHCA0HDQcHCA0HBwgICA8IDQcNFREWFhYRFhMkHDQsJBonJxMTJDEiJyorMy4uFx8zODMtNy0tLisBCgoKDQ0OGg0PFS0ZFR03Kzc3KzUrMC0uLS03KysvMysrKzA3Kys1Ky01Ky0xKystKy0rKysuLi0tLTcrLysrN//AABEIAMIBAwMBEQACEQEDEQH/xAAbAAEBAQEBAQEBAAAAAAAAAAAAAQYFAwQCB//EADoQAQABAwEDBgsHBQEAAAAAAAABAgMRBDNysQUGFVFzkQcSFCExUmKBgpLREyIjQVNxwTJCYZOhFv/EABoBAQACAwEAAAAAAAAAAAAAAAABBQMEBgL/xAAzEQEAAQIDBQYDCQEBAAAAAAAAAQIDBTGBBBEyQsEUFVFSobESEyEzNEFDU2FxkdGCIv/aAAwDAQACEQMRAD8A/uIAAAAAAAAAAAAAAAJVVTTTNVUxFNMZqqqnEUwiZimN8zuhMRv+kOfVy5ybEzE3qPN5vNTVVHfhoTimxxO75kerN2W95U6d5M/Wp+Sv6Heux/qe6ey3vKdO8mfrU/66/od67H+p7nZb3lOnuTP1qf8AXX9DvXY/1Pc7Le8p09yX+tT/AK6/od67H+p7nZb3lI5d5MmYj7ejz9dFVMd+Eximxz9PmR6nZb3ldCiqmumK6JpmiqM01UzmKob1NUVRvid8MExMfSX6SgAAAAAAAAAAAAAAAAAAAAAAABneeF+um1p9PTOKL1VVdyI/u8XGI/6oMeuVRbotxlVv36N/YaYmqavBlXMrJMgZEokTIGQarmZqK6rep01UzNFqqm5bif7fGzmP+OlwG5VNFduco3eu/wDxWbfTETFX4y0q/aAAAAAAAAAAAAAAAAAAAAAAAADLc85+/pd2v+HO4/8Al69FjsHNozWXOLESIBkESIDS8ytrq9y3/LoMBzuf89Vdt/Lr0ax0auAAAAAAAAAAAAAAAAAAAAAAAAZXnntNLu1/w53H/wAvXosdg5tGac6sTIIkQAESNLzJ2ur3KOMugwHO5/z1V238uvRrXRK4AAAAAAAAAAAAAAAAAAAAAAABlOem00m7X/Dnce/L16LHYObRmnPLFAATKRAAaXmRtdXuW+NToMBzuf8APVXbfy69GudErgAAAAAAAAAAAAAAAAAAAAAAAGU56/16T9q/4c9j35evRY7BzaMy51YplImQAQBI0vMja6vct/yv8BzuadVft/Lr0a90StAAAAAAAAAAAAAAAAAAAAcnlDlG5Tcqs2cRFE4qrxmZlQ7fiVym5Nq19N34tu1YiY+Kp8nSGq/Un5afo0O8dq8/pH+M3ybfgnSOr/Un5afojvHavP6QfIt+CdI6v9Sflp+h3jtXn9I/w+Rb8Hy6yfLJpnU/fm3mKM/dxn9mvf2i5f3fMq37mW3TFHD9Hy+Rab1I+aWD4YZPjq8Xne5PsVUzFEeLX/bMTMx70TTCYuT+Lj1RNMzTPppmaZjql4Z0BATINPzH2us3LfGpf4Fnc06q/EOXXo17olaAAAAAAAAAAAAAAAAAAASDL6irN27PXcqn/rjNq+3r/mfdZ2+CHm13tBKZQJkEyhKAz+pn8a92tXF4nNs05Q8soSmUhkGn5jbXWblvjUv8CzuadVfiHLr0bB0KtAAAAAAAAAAAAAAAAAAASr0T+wMtf2tzfq4uL2r7ev8AmfdaW+CHnlrvaZBMiUQJkEEs/qJ/GvdrXxl4nNsU5Q8xKCRI0/MXa6zct8al9gWdzTqrsQ5dejYuhVoAAAAAAAAAAAAAAAAAACVeif2Blb8/i3O0q4uL2v7ev+Z91pb4IeWWuyJlAmQARCUyDP6jbXu1r4yiWxTk8x6QEBqeYm11m5b41L/A87mnVXYhy69GxdArQAAAAAAAAAAAAAAAAAAEq9E/sDJ6ja3e0q4uK2v7ev8Amfda2+CHnlrvaZBEJTIJkSmUDP6ifxr3a18ZGxTk8xIkQGp5h7XW7lvjUvsDzuadVdiHLr0bJ0CtAAAAAAAAAAAAAAAAfPXrLNM4zM49PixmGpVttmmd2/eyRaqlPLrPtfK89vs/v/SflVHl1n2/lO8LP7/0fJqSddZxP9XyneFj9/6Pk1OBe09yq5XVHi4qrmqPP/lzV+3VXdqrjKZlvUVRFMRL8eS3fZ+Zh+RW9/HDyuUVUTiqMdX+WOqmafpL1ExOTzy8pTKEpkEyDgajbXu1r4ylsU5PMSmQMpGp5hbXW7lvjUvcDzuadVdiHLr0bN0CtAAAAAAAAAAAAAAAeGsrmmzXMemfutba6pps1TD3bjfVDlOfbiIAEQIgBLw1kRNqqfzpmJhhvfWh7ozc7LSZwEyhKA4Go217ta+MvTPTk88pSgIDV8wdrrdy3xqXuB53NOquxDl16Nm6BWgAAAAAAAAAAAAAAPl5R2XxQ1Nt+wq094ZLXFDlufbYCISIEAQl46vY1+7ixXeCXqjic3LSbCAmQTKBwNRtr3a18ZZGenJ5iQEykavmBtdbuW+NS9wTO5p1V2IcuvRtF+rQAAAAAAAAAAAAAAHycpbKN6Gpt32FWnvDJa4octzzcECIASiAB46vY1+7ixXeCXujNzGmzplAmRJkHAv7W72tXGWRmpyeaXpMggNZ4P8Aa67ct8al7gmdzTqrcQ5dejar9WgAAAAAAAAAAAAAAPk5S2PxQ1Nu+wq094ZLXHDlOc3twEogECCRA8dXsa/dxY7vDL1RxOZlpthMgmUCZEuDqJ/Gu9rVxZoZqcnkJEiA1vg/2uu3LfGpeYJnc06q3EOXXo2q/VoAAAAAAAAAAAAAAD5OU9j8UNPb/u9WnvDJa44clzjdECCRAiAB4azY1+7ix3eGXujiczLTZ0yJQEygcHUba72tXGWeMmaMnmlICZSNb4Ptrrty1xqXmC53NOqtxDl16NsvlaAAAAAAAAAAAAAAA+PlPY/FDT2/7vVp7wyWeOHJc03gEQCBAEJeGs2Nfu4sdzhl6ozcvLVbCZAyhKZBwb+1u9rVxlsRkyxk88pSgANb4Pdtrty1xqXmC53NOqtxDl16NuvlaAAAAAAAAAAAAAAA+PlTYfFDTxD7vVp7wyWeOHIcy3kQAIjekQIJeOs2Nfu4wx3OGXqjNy8tVsJkEygTIlwr+1u9rVxlsxlDJGTzSlMpEyDX+Dzba7ctcal3gudzTqrsQ5dejbr5WAAAAAAAAAAAAAAAPj5U2HxQ0sQ+71ae8Mtnjhx3MN5AECISZBMoHhrNjX7uMPFzhe6OJy8tVnTIJkSmQcK/tbva1cWzTlDJGTzy9JMiUBr/AAd7XX7lrjUvMFzr06q3EeXXo3C9VgAAAAAAAAAAAAAAD4+Vdh8UNLEfu1WnvDLZ44cZy7eRCQEQAIhLw1uwr93GGOvheqOJystdsJkBCUyDhX5/Fu9rVxbdOUMkZPNKUSANf4Ottr9y1xqXeDZ16dVbiPLr0bleqwAAAAAAAAAAAAAAB8XKuwnehpYj92q094ZbPHDjOWb6IBAiEgIDw1uwr93GHivheqOJyms2EyJTIJlA4d/a3e1q4tynKGSMnm9JRIZBsPBztdfP5eJajPzLvBo+tenVW4jy69G5XisAAAAAAAAAAAAAAAfLyjbmuxVTHp9LzXRFdM01fWJTEzE74Z6a6qfNVTOY6pUVeD17/wDxXG7921G0x+MJ9pPq1d8PHc97zR6p7TT4H2k+rV3wdz3vNHqntNPgfaT6tXfCO5r3mj1O00+B9pPq1d8Hc17zR6naafA+0n1au+Dua95o9TtNPg8tR41y3VbiJiasYmZjrRVgt6Y3fFHqmnaqYnful8Xkd72e9h7hv+en1Ze3UeEp5Fe9nvO4b/np9f8ADt1HhJ5Fe9jvO4b/AJ6fVPbqPCU8hvex3ncN/wA9Pqduo8Jc65yFqqq66oqs4qrmqMzP5z+zPGDXojd8Uer1G32/CX56A1frWO+fo9dz3vNHqd4W/CU/8/q/Wsd8/Q7nveaPU7wt+ErHN7VTMZqsY/OYmZIwe7+Ncep3hR5ZbTmpybTobFVNOZmufGuVzGJrlcbLs1Oz0fBT9f3V969Vdq+KXfbLCAAAAAAAAAAAAAAATGfNIPlr0NmuczHnkH56OsdQHR1jqA6OsdQHR1jqA6OsdQHR1jqA6OsdQHR1jqA6OsdQHR1jqA6OsdQHR1jqA6OsdQLHJ9iJzgH00UU0R4tPogH6AAAAAAAAAAAAAAAAAAAAAAAAAAAAAAAAAAAAAAAAAB//2Q==;" parent="1" vertex="1">
          <mxGeometry x="1539.9" y="540" width="80.1" height="60" as="geometry" />
        </mxCell>
        <mxCell id="s9J2YqvnW8XL8gBhkPe_-49" value="Machine Learning" style="sketch=0;aspect=fixed;html=1;points=[];align=center;image;fontSize=12;image=img/lib/mscae/Machine_Learning_Service_Workspaces.svg;strokeColor=#4A4A4A;fontFamily=Verdana;fillColor=#1329ED;" parent="1" vertex="1">
          <mxGeometry x="1558" y="436" width="46" height="50" as="geometry" />
        </mxCell>
        <mxCell id="s9J2YqvnW8XL8gBhkPe_-55" value="" style="endArrow=none;dashed=1;html=1;dashPattern=1 3;strokeWidth=2;rounded=0;fontFamily=Verdana;fontSize=15;" parent="1" edge="1">
          <mxGeometry width="50" height="50" relative="1" as="geometry">
            <mxPoint x="585" y="188" as="sourcePoint" />
            <mxPoint x="920" y="188" as="targetPoint" />
          </mxGeometry>
        </mxCell>
        <mxCell id="s9J2YqvnW8XL8gBhkPe_-56" value="" style="endArrow=none;dashed=1;html=1;dashPattern=1 3;strokeWidth=2;rounded=0;fontFamily=Verdana;fontSize=15;" parent="1" edge="1">
          <mxGeometry width="50" height="50" relative="1" as="geometry">
            <mxPoint x="370" y="580" as="sourcePoint" />
            <mxPoint x="1490" y="580" as="targetPoint" />
          </mxGeometry>
        </mxCell>
        <mxCell id="s9J2YqvnW8XL8gBhkPe_-57" value="" style="endArrow=none;dashed=1;html=1;dashPattern=1 3;strokeWidth=2;rounded=0;fontFamily=Verdana;fontSize=15;" parent="1" edge="1">
          <mxGeometry width="50" height="50" relative="1" as="geometry">
            <mxPoint x="1490" y="790" as="sourcePoint" />
            <mxPoint x="1490" y="580" as="targetPoint" />
          </mxGeometry>
        </mxCell>
        <mxCell id="s9J2YqvnW8XL8gBhkPe_-58" value="" style="sketch=0;outlineConnect=0;fontColor=#232F3E;gradientColor=none;fillColor=#000099;strokeColor=none;dashed=0;verticalLabelPosition=bottom;verticalAlign=top;align=center;html=1;fontSize=12;fontStyle=0;aspect=fixed;pointerEvents=1;shape=mxgraph.aws4.gear;fontFamily=Verdana;" parent="1" vertex="1">
          <mxGeometry x="916" y="664" width="78" height="78" as="geometry" />
        </mxCell>
        <UserObject label="" lucidchartObjectId="SeWScPOr5BTh" id="s9J2YqvnW8XL8gBhkPe_-59">
          <mxCell style="html=1;overflow=block;blockSpacing=1;whiteSpace=wrap;fontSize=15;fontColor=#3a414a;spacing=9;verticalAlign=top;strokeColor=none;strokeOpacity=100;rounded=1;absoluteArcSize=1;arcSize=9;strokeWidth=0.8;fontFamily=Verdana;" parent="1" vertex="1">
            <mxGeometry x="970" y="450" width="140" height="106" as="geometry" />
          </mxCell>
        </UserObject>
        <mxCell id="s9J2YqvnW8XL8gBhkPe_-54" value="Analytics" style="sketch=0;aspect=fixed;html=1;points=[];align=center;image;fontSize=12;image=img/lib/mscae/Machine_Learning_Service_Workspaces.svg;strokeColor=#4A4A4A;fontFamily=Verdana;fillColor=#1329ED;" parent="1" vertex="1">
          <mxGeometry x="1017" y="470" width="46" height="50" as="geometry" />
        </mxCell>
        <mxCell id="s9J2YqvnW8XL8gBhkPe_-60" value="" style="endArrow=none;dashed=1;html=1;dashPattern=1 3;strokeWidth=2;rounded=0;fontFamily=Verdana;fontSize=15;exitX=1;exitY=1;exitDx=0;exitDy=0;" parent="1" source="s9J2YqvnW8XL8gBhkPe_-1" edge="1">
          <mxGeometry width="50" height="50" relative="1" as="geometry">
            <mxPoint x="916" y="398" as="sourcePoint" />
            <mxPoint x="916" y="188" as="targetPoint" />
          </mxGeometry>
        </mxCell>
        <mxCell id="s9J2YqvnW8XL8gBhkPe_-61" value="" style="endArrow=none;dashed=1;html=1;dashPattern=1 3;strokeWidth=2;rounded=0;fontFamily=Verdana;fontSize=15;" parent="1" edge="1">
          <mxGeometry width="50" height="50" relative="1" as="geometry">
            <mxPoint x="1084.5" y="198" as="sourcePoint" />
            <mxPoint x="1235.5" y="198" as="targetPoint" />
          </mxGeometry>
        </mxCell>
        <mxCell id="s9J2YqvnW8XL8gBhkPe_-62" value="" style="endArrow=none;dashed=1;html=1;dashPattern=1 3;strokeWidth=2;rounded=0;fontFamily=Verdana;fontSize=15;" parent="1" edge="1">
          <mxGeometry width="50" height="50" relative="1" as="geometry">
            <mxPoint x="1230" y="340" as="sourcePoint" />
            <mxPoint x="1230" y="198" as="targetPoint" />
          </mxGeometry>
        </mxCell>
        <mxCell id="s9J2YqvnW8XL8gBhkPe_-63" value="" style="endArrow=none;dashed=1;html=1;dashPattern=1 3;strokeWidth=2;rounded=0;fontFamily=Verdana;fontSize=15;" parent="1" edge="1">
          <mxGeometry width="50" height="50" relative="1" as="geometry">
            <mxPoint x="1294.5" y="192" as="sourcePoint" />
            <mxPoint x="1445.5" y="192" as="targetPoint" />
          </mxGeometry>
        </mxCell>
        <mxCell id="s9J2YqvnW8XL8gBhkPe_-64" value="" style="endArrow=none;dashed=1;html=1;dashPattern=1 3;strokeWidth=2;rounded=0;fontFamily=Verdana;fontSize=15;" parent="1" edge="1">
          <mxGeometry width="50" height="50" relative="1" as="geometry">
            <mxPoint x="1440" y="334" as="sourcePoint" />
            <mxPoint x="1440" y="192" as="targetPoint" />
          </mxGeometry>
        </mxCell>
        <mxCell id="s9J2YqvnW8XL8gBhkPe_-65" value="" style="endArrow=none;dashed=1;html=1;dashPattern=1 3;strokeWidth=2;rounded=0;fontFamily=Verdana;fontSize=15;" parent="1" edge="1">
          <mxGeometry width="50" height="50" relative="1" as="geometry">
            <mxPoint x="300" y="187.60000000000002" as="sourcePoint" />
            <mxPoint x="440" y="188" as="targetPoint" />
          </mxGeometry>
        </mxCell>
        <mxCell id="s9J2YqvnW8XL8gBhkPe_-66" value="" style="endArrow=none;dashed=1;html=1;dashPattern=1 3;strokeWidth=2;rounded=0;fontFamily=Verdana;fontSize=15;" parent="1" edge="1">
          <mxGeometry width="50" height="50" relative="1" as="geometry">
            <mxPoint x="440" y="330" as="sourcePoint" />
            <mxPoint x="440" y="188" as="targetPoint" />
          </mxGeometry>
        </mxCell>
        <mxCell id="s9J2YqvnW8XL8gBhkPe_-67" value="" style="endArrow=none;dashed=1;html=1;dashPattern=1 3;strokeWidth=2;rounded=0;fontFamily=Verdana;fontSize=15;" parent="1" edge="1">
          <mxGeometry width="50" height="50" relative="1" as="geometry">
            <mxPoint x="1397" y="130" as="sourcePoint" />
            <mxPoint x="1397" y="10" as="targetPoint" />
          </mxGeometry>
        </mxCell>
        <mxCell id="s9J2YqvnW8XL8gBhkPe_-68" value="" style="endArrow=none;dashed=1;html=1;dashPattern=1 3;strokeWidth=2;rounded=0;fontFamily=Verdana;fontSize=15;exitX=0;exitY=0;exitDx=0;exitDy=0;" parent="1" source="s9J2YqvnW8XL8gBhkPe_-2" edge="1">
          <mxGeometry width="50" height="50" relative="1" as="geometry">
            <mxPoint x="387" y="9" as="sourcePoint" />
            <mxPoint x="1397" y="9" as="targetPoint" />
          </mxGeometry>
        </mxCell>
        <UserObject label="Pre-approval engine" lucidchartObjectId="SeWScPOr5BTh" id="s9J2YqvnW8XL8gBhkPe_-69">
          <mxCell style="html=1;overflow=block;blockSpacing=1;whiteSpace=wrap;fontSize=15;fontColor=#3a414a;spacing=9;verticalAlign=top;strokeColor=none;strokeOpacity=100;rounded=1;absoluteArcSize=1;arcSize=9;strokeWidth=0.8;fontFamily=Verdana;" parent="1" vertex="1">
            <mxGeometry x="1217" y="442" width="140" height="106" as="geometry" />
          </mxCell>
        </UserObject>
        <mxCell id="s9J2YqvnW8XL8gBhkPe_-70" value="Ownershop, Classification, Relationships" style="text;html=1;strokeColor=none;fillColor=none;align=center;verticalAlign=middle;whiteSpace=wrap;rounded=0;fontFamily=Verdana;fontSize=11;" parent="1" vertex="1">
          <mxGeometry x="330" y="340" width="84" height="30" as="geometry" />
        </mxCell>
        <mxCell id="s9J2YqvnW8XL8gBhkPe_-73" value="Integrated data set design, requirements Use Cases" style="text;html=1;strokeColor=none;fillColor=none;align=center;verticalAlign=middle;whiteSpace=wrap;rounded=0;fontFamily=Verdana;fontSize=11;" parent="1" vertex="1">
          <mxGeometry x="1090" y="340" width="130" height="30" as="geometry" />
        </mxCell>
        <mxCell id="s9J2YqvnW8XL8gBhkPe_-75" value="Digital Data Sharing&lt;br&gt;Agreements" style="text;html=1;strokeColor=none;fillColor=none;align=center;verticalAlign=middle;whiteSpace=wrap;rounded=0;fontFamily=Verdana;fontSize=11;" parent="1" vertex="1">
          <mxGeometry x="1310" y="340" width="130" height="30" as="geometry" />
        </mxCell>
        <mxCell id="s9J2YqvnW8XL8gBhkPe_-76" value="" style="endArrow=classic;startArrow=classic;html=1;rounded=0;fontFamily=Verdana;fontSize=11;strokeColor=#66B2FF;" parent="1" edge="1">
          <mxGeometry width="50" height="50" relative="1" as="geometry">
            <mxPoint x="710" y="180" as="sourcePoint" />
            <mxPoint x="710" y="140" as="targetPoint" />
          </mxGeometry>
        </mxCell>
        <mxCell id="s9J2YqvnW8XL8gBhkPe_-77" value="Ownership, Classification, Relationships" style="text;html=1;strokeColor=none;fillColor=none;align=center;verticalAlign=middle;whiteSpace=wrap;rounded=0;fontFamily=Verdana;fontSize=11;" parent="1" vertex="1">
          <mxGeometry x="730" y="140" width="210" height="30" as="geometry" />
        </mxCell>
        <mxCell id="s9J2YqvnW8XL8gBhkPe_-78" value="" style="endArrow=classic;startArrow=classic;html=1;rounded=0;fontFamily=Verdana;fontSize=11;strokeColor=#66B2FF;" parent="1" edge="1">
          <mxGeometry width="50" height="50" relative="1" as="geometry">
            <mxPoint x="394" y="175" as="sourcePoint" />
            <mxPoint x="394" y="135" as="targetPoint" />
          </mxGeometry>
        </mxCell>
        <mxCell id="s9J2YqvnW8XL8gBhkPe_-79" value="Operations sets data elements" style="text;html=1;strokeColor=none;fillColor=none;align=center;verticalAlign=middle;whiteSpace=wrap;rounded=0;fontFamily=Verdana;fontSize=11;" parent="1" vertex="1">
          <mxGeometry x="410" y="140" width="194" height="30" as="geometry" />
        </mxCell>
        <mxCell id="s9J2YqvnW8XL8gBhkPe_-80" value="" style="endArrow=classic;startArrow=classic;html=1;rounded=0;fontFamily=Verdana;fontSize=11;strokeColor=#66B2FF;" parent="1" edge="1">
          <mxGeometry width="50" height="50" relative="1" as="geometry">
            <mxPoint x="1150" y="180" as="sourcePoint" />
            <mxPoint x="1150" y="140" as="targetPoint" />
          </mxGeometry>
        </mxCell>
        <mxCell id="s9J2YqvnW8XL8gBhkPe_-81" value="" style="endArrow=classic;startArrow=classic;html=1;rounded=0;fontFamily=Verdana;fontSize=11;strokeColor=#66B2FF;" parent="1" edge="1">
          <mxGeometry width="50" height="50" relative="1" as="geometry">
            <mxPoint x="1340" y="175" as="sourcePoint" />
            <mxPoint x="1340" y="135" as="targetPoint" />
          </mxGeometry>
        </mxCell>
        <mxCell id="s9J2YqvnW8XL8gBhkPe_-82" value="Operations on &lt;br style=&quot;font-size: 10px;&quot;&gt;Integrated datasets" style="text;html=1;strokeColor=none;fillColor=none;align=left;verticalAlign=middle;whiteSpace=wrap;rounded=0;fontFamily=Verdana;fontSize=10;" parent="1" vertex="1">
          <mxGeometry x="1160" y="150" width="210" height="30" as="geometry" />
        </mxCell>
        <mxCell id="s9J2YqvnW8XL8gBhkPe_-83" value="Operations on &lt;br&gt;requests and approvals" style="text;html=1;strokeColor=none;fillColor=none;align=left;verticalAlign=middle;whiteSpace=wrap;rounded=0;fontFamily=Verdana;fontSize=10;" parent="1" vertex="1">
          <mxGeometry x="1348" y="140" width="210" height="30" as="geometry" />
        </mxCell>
        <mxCell id="s9J2YqvnW8XL8gBhkPe_-84" value="" style="endArrow=classic;html=1;rounded=0;strokeColor=#66B2FF;fontFamily=Verdana;fontSize=10;entryX=0;entryY=0.5;entryDx=0;entryDy=0;exitX=1;exitY=0.5;exitDx=0;exitDy=0;" parent="1" source="s9J2YqvnW8XL8gBhkPe_-3" target="s9J2YqvnW8XL8gBhkPe_-2" edge="1">
          <mxGeometry width="50" height="50" relative="1" as="geometry">
            <mxPoint x="270" y="110" as="sourcePoint" />
            <mxPoint x="320" y="60" as="targetPoint" />
          </mxGeometry>
        </mxCell>
        <mxCell id="s9J2YqvnW8XL8gBhkPe_-88" value="" style="endArrow=classic;startArrow=classic;html=1;rounded=0;fontFamily=Verdana;fontSize=11;strokeColor=#66B2FF;" parent="1" edge="1">
          <mxGeometry width="50" height="50" relative="1" as="geometry">
            <mxPoint x="270" y="710" as="sourcePoint" />
            <mxPoint x="270" y="680" as="targetPoint" />
          </mxGeometry>
        </mxCell>
      </root>
    </mxGraphModel>
  </diagram>
</mxfile>
